<svg width="411" height="764" viewBox="0 0 411 764" fill="none" xmlns="http://www.w3.org/2000/svg">
<g filter="url(#filter0_d_109_231)">
<path d="M168 56L187.5 24H234.5L243 56L234.5 114V140.5L284.5 167L358 375L387 422L368 413.5V454H347L336 397L273.5 244.5L255.5 289L273.5 413.5V552.5L284.5 594V685.5L318 728.5L295.5 739.5L273.5 709L201.5 454L154 709L107 739.5L93 728.5L132 685.5L118 594L139 544L132 413.5L154 289L139 244.5L80.5 404L69.5 454L42 463.5V413.5H24L60 383L118 167L176.5 133.5V101.5L168 56Z" fill="#D9D9D9"/>
</g>
<defs>
<filter id="filter0_d_109_231" x="0" y="0" width="411" height="763.5" filterUnits="userSpaceOnUse" color-interpolation-filters="sRGB">
<feFlood flood-opacity="0" result="BackgroundImageFix"/>
<feColorMatrix in="SourceAlpha" type="matrix" values="0 0 0 0 0 0 0 0 0 0 0 0 0 0 0 0 0 0 127 0" result="hardAlpha"/>
<feOffset/>
<feGaussianBlur stdDeviation="12"/>
<feComposite in2="hardAlpha" operator="out"/>
<feColorMatrix type="matrix" values="0 0 0 0 0 0 0 0 0 0 0 0 0 0 0 0 0 0 0.25 0"/>
<feBlend mode="normal" in2="BackgroundImageFix" result="effect1_dropShadow_109_231"/>
<feBlend mode="normal" in="SourceGraphic" in2="effect1_dropShadow_109_231" result="shape"/>
</filter>
</defs>
</svg>
